<svg viewBox="0 0 24 24" aria-hidden="true" xmlns="http://www.w3.org/2000/svg">
  <path
    fill="currentColor"
    d="M16.365 1.43c0 1.14-.417 2.087-1.243 2.848-.833.756-1.834 1.195-2.919 1.123-.054-1.09.46-2.118 1.27-2.848.832-.73 1.94-1.19 2.892-1.223zm3.382 16.645c-.514 1.17-.762 1.693-1.426 2.736-.925 1.418-2.227 3.188-3.845 3.204-1.437.013-1.81-.94-3.77-.94-1.96 0-2.37.925-3.806.953-1.617.027-2.855-1.53-3.78-2.946-2.058-3.15-2.276-6.848-1.004-8.814.9-1.386 2.318-2.204 3.668-2.204 1.715 0 2.792.966 4.2.966 1.381 0 2.224-.968 4.196-.968 1.288 0 2.651.7 3.548 1.91-3.11 1.7-2.602 6.15.019 7.103z"
  />
</svg>

