<svg viewBox="0 0 24 24" aria-hidden="true" xmlns="http://www.w3.org/2000/svg">
  <path
    fill="currentColor"
    d="M3.6 2.2c-.4.3-.6.8-.6 1.4v16.8c0 .6.2 1.1.6 1.4l.1.1 9.6-9.9v-.5L3.7 2.1l-.1.1z"
  />
  <path
    fill="currentColor"
    d="M16.3 15.1 13.1 12l3.2-3.1L20 5.4c.5-.3 1-.3 1.4-.1.5.3.8.9.8 1.6v10.2c0 .7-.3 1.3-.8 1.6-.5.3-1 .2-1.4-.1l-3.7-3.5z"
  />
  <path
    fill="currentColor"
    d="m13.1 12-9.4 9.7c.5.4 1.2.4 2 .1l.1-.1 9.4-5.3-2.1-2.2zM13 12.1l2.1-2.1-9.3-5.3c-.8-.4-1.5-.4-2 0l9.2 7.4z"
  />
</svg>

